<svg width="16" height="17" viewBox="0 0 16 17" fill="none" xmlns="http://www.w3.org/2000/svg">
<path fill-rule="evenodd" clip-rule="evenodd" d="M9.33334 5.16667C9.33334 4.43133 8.73534 3.83333 8.00001 3.83333C7.26468 3.83333 6.66668 4.43133 6.66668 5.16667C6.66668 5.902 7.26468 6.5 8.00001 6.5C8.73534 6.5 9.33334 5.902 9.33334 5.16667ZM10.6667 5.16667C10.6667 6.63733 9.47068 7.83333 8.00001 7.83333C6.52934 7.83333 5.33334 6.63733 5.33334 5.16667C5.33334 3.696 6.52934 2.5 8.00001 2.5C9.47068 2.5 10.6667 3.696 10.6667 5.16667ZM3.33334 13.8333C3.33334 11.26 5.42734 9.16667 8.00001 9.16667C10.5727 9.16667 12.6667 11.26 12.6667 13.8333C12.6667 14.2013 12.3687 14.5 12 14.5C11.6313 14.5 11.3333 14.2013 11.3333 13.8333C11.3333 11.9953 9.83801 10.5 8.00001 10.5C6.16201 10.5 4.66668 11.9953 4.66668 13.8333C4.66668 14.2013 4.36868 14.5 4.00001 14.5C3.63134 14.5 3.33334 14.2013 3.33334 13.8333Z" fill="#231F20"/>
<mask id="mask0_1_219" style="mask-type:alpha" maskUnits="userSpaceOnUse" x="3" y="2" width="10" height="13">
<path fill-rule="evenodd" clip-rule="evenodd" d="M9.33334 5.16667C9.33334 4.43133 8.73534 3.83333 8.00001 3.83333C7.26468 3.83333 6.66668 4.43133 6.66668 5.16667C6.66668 5.902 7.26468 6.5 8.00001 6.5C8.73534 6.5 9.33334 5.902 9.33334 5.16667ZM10.6667 5.16667C10.6667 6.63733 9.47068 7.83333 8.00001 7.83333C6.52934 7.83333 5.33334 6.63733 5.33334 5.16667C5.33334 3.696 6.52934 2.5 8.00001 2.5C9.47068 2.5 10.6667 3.696 10.6667 5.16667ZM3.33334 13.8333C3.33334 11.26 5.42734 9.16667 8.00001 9.16667C10.5727 9.16667 12.6667 11.26 12.6667 13.8333C12.6667 14.2013 12.3687 14.5 12 14.5C11.6313 14.5 11.3333 14.2013 11.3333 13.8333C11.3333 11.9953 9.83801 10.5 8.00001 10.5C6.16201 10.5 4.66668 11.9953 4.66668 13.8333C4.66668 14.2013 4.36868 14.5 4.00001 14.5C3.63134 14.5 3.33334 14.2013 3.33334 13.8333Z" fill="white"/>
</mask>
<g mask="url(#mask0_1_219)">
<rect y="0.5" width="16" height="16" fill="black"/>
</g>
</svg>
